<svg xmlns="http://www.w3.org/2000/svg" width="26.791" height="21.768" viewBox="0 0 26.791 21.768"><defs><style>.a{fill:#fea700;fill-rule:evenodd;}</style></defs><path class="a" d="M14.7,9.674A5.023,5.023,0,1,0,19.721,14.7,5.023,5.023,0,0,0,14.7,9.674ZM8,14.7a6.7,6.7,0,1,1,6.7,6.7A6.7,6.7,0,0,1,8,14.7Z" transform="translate(-1.302 -2.977)"/><path class="a" d="M11.3,3.674a1.674,1.674,0,0,0-1.34.67l-1,1.34a3.349,3.349,0,0,1-2.679,1.34H4.186A2.512,2.512,0,0,0,1.674,9.535V19.582a2.512,2.512,0,0,0,2.512,2.512H22.6a2.512,2.512,0,0,0,2.512-2.512V9.535A2.512,2.512,0,0,0,22.6,7.023H20.512a3.349,3.349,0,0,1-2.679-1.34l-1-1.34a1.674,1.674,0,0,0-1.34-.67ZM8.623,3.34A3.349,3.349,0,0,1,11.3,2h4.186a3.349,3.349,0,0,1,2.679,1.34l1,1.34a1.674,1.674,0,0,0,1.34.67H22.6a4.186,4.186,0,0,1,4.186,4.186V19.582A4.186,4.186,0,0,1,22.6,23.768H4.186A4.186,4.186,0,0,1,0,19.582V9.535A4.186,4.186,0,0,1,4.186,5.349H6.279a1.674,1.674,0,0,0,1.34-.67Z" transform="translate(0 -2)"/></svg>