<svg xmlns="http://www.w3.org/2000/svg" width="17.732" height="34.521" viewBox="0 0 17.732 34.521"><defs><style>.a{fill:#89c523;}</style></defs><g transform="translate(-24.318)"><path class="a" d="M26.946,34.521a3.487,3.487,0,0,1-1.788-1,3.128,3.128,0,0,1-.839-2.14V3.121A3.052,3.052,0,0,1,26.794.062.967.967,0,0,0,26.946,0H39.488a1.968,1.968,0,0,0,.207.079,3.076,3.076,0,0,1,2.354,3.028q0,14.1,0,28.2a3.141,3.141,0,0,1-2.51,3.152.594.594,0,0,0-.117.059H26.946Zm-1.6-6.362H41.013V6.286H25.344Zm7.84,4.219a1.55,1.55,0,0,0,1.564-1.557,1.571,1.571,0,1,0-1.564,1.557Zm0-29.271H31.237c-.428,0-.659.2-.656.549a.549.549,0,0,0,.642.532h3.908c.428,0,.659-.2.656-.549a.549.549,0,0,0-.642-.532Z"/></g></svg>