<svg xmlns="http://www.w3.org/2000/svg" width="30.773" height="34.194" viewBox="0 0 30.773 34.194"><defs><style>.a{fill:#89c523;}</style></defs><g transform="translate(-8.703 -4.39)"><g transform="translate(8.703 4.39)"><path class="a" d="M33.687,64.938v2.2H30.969a.748.748,0,0,0,0,1.5H43.178a.748.748,0,0,0,0-1.5H40.46v-2.2Z" transform="translate(-21.687 -40.925)"/><path class="a" d="M37.971,4.39H10.208A1.505,1.505,0,0,0,8.7,5.9V22.2H39.476V5.9A1.505,1.505,0,0,0,37.971,4.39Z" transform="translate(-8.703 -4.39)"/><path class="a" d="M8.7,53.657a1.5,1.5,0,0,0,1.505,1.5H37.971a1.5,1.5,0,0,0,1.505-1.5v-3.1H8.7Z" transform="translate(-8.703 -32.25)"/><g transform="translate(0.339 28.922)"><path class="a" d="M67.664,88.805a.3.3,0,0,0,.311.283H74.4a.3.3,0,0,0,.311-.283v-.717H67.664Z" transform="translate(-44.619 -83.816)"/><path class="a" d="M71.225,79.128a3.593,3.593,0,0,0-3.082,1.648,2.972,2.972,0,0,0-.42,1.2h7a2.969,2.969,0,0,0-.42-1.2A3.594,3.594,0,0,0,71.225,79.128Z" transform="translate(-44.654 -78.409)"/><path class="a" d="M9.878,88.089l-.321,1H31.624l-.312-1Z" transform="translate(-9.557 -83.817)"/><path class="a" d="M12.085,77.316l-1.147,3.567H31.924l-1.115-3.567Z" transform="translate(-10.39 -77.316)"/></g></g></g></svg>