<svg xmlns="http://www.w3.org/2000/svg" width="35.001" height="39.011" viewBox="0 0 35.001 39.011"><defs><style>.a{fill:#89c523;}</style></defs><g transform="translate(-7.68 -2.63)"><path class="a" d="M33.141,16.252a1.241,1.241,0,0,1-.19-1.158L35.49,7.65a1.241,1.241,0,0,1,2.349.8L35.9,14.134l3.585-.244a1.241,1.241,0,0,1,1.241,1.654L38.19,22.988a1.241,1.241,0,1,1-2.349-.8l1.935-5.674-3.585.244A1.241,1.241,0,0,1,33.141,16.252ZM7.68,19.283V11.116A1.241,1.241,0,0,1,8.921,9.875h3.308v-6a1.241,1.241,0,0,1,2.481,0v6h6.807v-6a1.241,1.241,0,0,1,2.481,0v6h3.308a1.241,1.241,0,0,1,1.241,1.241v8.167a9.867,9.867,0,0,1-9.1,9.825c0,.488-.025,1.919,0,5.963a4.276,4.276,0,0,0,8.548,0v-.583a6.765,6.765,0,0,1,6.765-6.757H41.44a1.241,1.241,0,1,1,0,2.481H34.762a4.28,4.28,0,0,0-4.276,4.276v.55a6.757,6.757,0,0,1-13.51.025V29.1A9.867,9.867,0,0,1,7.68,19.283Z" transform="translate(0 0)"/></g></svg>