<svg xmlns="http://www.w3.org/2000/svg" width="38.853" height="38.852" viewBox="0 0 38.853 38.852"><defs><style>.a{fill:#89c523;}</style></defs><g transform="translate(-1 -1)"><g transform="translate(1 1)"><g transform="translate(1.324 6.667)"><path class="a" d="M21.769,25.834a8.576,8.576,0,0,1-8.681,9.045v4.735a.607.607,0,0,1-1.214,0V27.959a8.526,8.526,0,0,1-8.681-8.985.65.65,0,0,1,.607-.607A8.984,8.984,0,0,1,10.842,21.1c.425.486.789.971,1.153,1.457v-1.7a8.612,8.612,0,0,1,9.349-8.863.65.65,0,0,1,.607.607,8.526,8.526,0,0,1-8.681,8.985v7.831a8.959,8.959,0,0,1,8.074-4.128A.539.539,0,0,1,21.769,25.834Z" transform="translate(-3.182 -11.983)"/></g><g transform="translate(0 31.932)"><path class="a" d="M24.918,59.913a.608.608,0,0,1-.607.607H1.607A.574.574,0,0,1,1,59.913v-3.7a.638.638,0,0,1,.3-.546A21.336,21.336,0,0,1,9.8,53.6v2.368a1.789,1.789,0,0,0,1.821,1.821,1.826,1.826,0,0,0,1.821-1.821V53.6C20.062,54.025,24.918,56.635,24.918,59.913Z" transform="translate(-1 -53.6)"/></g><g transform="translate(24.404 23.068)"><path class="a" d="M55.648,39.607v6.8c0,3.217-5.16,7.892-7.042,8.377h-.364c-1.882-.546-7.042-5.16-7.042-8.377v-6.8A.622.622,0,0,1,41.807,39h3.339v1.7a19.117,19.117,0,0,0,1.639,7.649,1.818,1.818,0,0,0,3.278,0,19.187,19.187,0,0,0,1.639-7.71V39h3.339a.551.551,0,0,1,.425.182A.473.473,0,0,1,55.648,39.607Z" transform="translate(-41.2 -39)"/></g><g transform="translate(26.772)"><path class="a" d="M54.267,1h-8.56a.574.574,0,0,0-.607.607V5.553a4.917,4.917,0,1,0,9.834,0V1.607A.662.662,0,0,0,54.267,1ZM51.292,5.189H48.621a.653.653,0,0,1-.607-.607.608.608,0,0,1,.607-.607h2.671a.574.574,0,0,1,.607.607A.608.608,0,0,1,51.292,5.189Z" transform="translate(-45.1 -1)"/></g><g transform="translate(29.564 10.32)"><path class="a" d="M53.828,18V32.448a17.741,17.741,0,0,1-1.518,7.163.628.628,0,0,1-1.093,0h0a17.669,17.669,0,0,1-1.518-7.1V18A6.409,6.409,0,0,0,53.828,18Z" transform="translate(-49.7 -18)"/></g></g></g></svg>