<svg id="Capa_1" data-name="Capa 1" xmlns="http://www.w3.org/2000/svg" viewBox="0 0 150 150"><defs><style>.cls-1{opacity:0.5;}.cls-2{fill:#dae2f2;}.cls-3{fill:#ffda89;}.cls-4{fill:#eaf0fe;}.cls-5{fill:#5f82d6;}.cls-6{fill:#2e3b57;}.cls-7{fill:#ffc190;}.cls-8{fill:#fff;}</style></defs><title>Mesa de trabajo 1</title><g class="cls-1"><path class="cls-2" d="M42.35,60.1a13.23,13.23,0,1,0,18.58,2.21A13.24,13.24,0,0,0,42.35,60.1ZM54.84,76A7,7,0,1,1,56,66.19,7,7,0,0,1,54.84,76Z"/><path class="cls-2" d="M46.67,60.62,42,64.31s-3.75-3.11-3.58-4.54,3.23-4,4.69-3.69S46.67,60.62,46.67,60.62Z"/><path class="cls-2" d="M58.88,77l-4.69,3.69s2.14,4.37,3.58,4.54,4.66-2.2,4.68-3.69S58.88,77,58.88,77Z"/><path class="cls-2" d="M40.45,66.49l0,6s-4.75,1.06-5.78,0-1.2-5,0-6S40.45,66.49,40.45,66.49Z"/><path class="cls-2" d="M41.36,74.92l2.88,5.22s-3.68,3.18-5.06,2.78-3.44-3.84-2.88-5.22S41.36,74.92,41.36,74.92Z"/><path class="cls-2" d="M60.57,66.85,57.07,62s3.26-3.62,4.68-3.39,3.89,3.39,3.49,4.83S60.57,66.85,60.57,66.85Z"/><path class="cls-2" d="M48.8,59.67l5.78,1.45s2.15-4.36,1.4-5.6-4.59-2.35-5.78-1.45S48.8,59.67,48.8,59.67Z"/><path class="cls-2" d="M51.67,82.17l-5.78-1.45s-2.15,4.37-1.41,5.61,4.6,2.34,5.78,1.45S51.67,82.17,51.67,82.17Z"/><path class="cls-2" d="M61.13,75l-.05-6s4.74-1.06,5.77,0,1.2,5,.05,6S61.13,75,61.13,75Z"/></g><g class="cls-1"><path class="cls-2" d="M93.22,73.48a13.22,13.22,0,1,0,18.57,2.21A13.22,13.22,0,0,0,93.22,73.48ZM105.7,89.33a6.95,6.95,0,1,1,1.17-9.76A6.94,6.94,0,0,1,105.7,89.33Z"/><path class="cls-2" d="M97.53,74l-4.68,3.69s-3.74-3.1-3.57-4.54,3.23-4,4.68-3.69S97.53,74,97.53,74Z"/><path class="cls-2" d="M109.74,90.4l-4.68,3.69s2.14,4.36,3.57,4.53,4.67-2.19,4.69-3.68S109.74,90.4,109.74,90.4Z"/><path class="cls-2" d="M91.31,79.86l0,6s-4.74,1.06-5.77.05-1.2-5,0-6S91.31,79.86,91.31,79.86Z"/><path class="cls-2" d="M92.23,88.29l2.87,5.22S91.43,96.7,90,96.3s-3.44-3.85-2.87-5.23S92.23,88.29,92.23,88.29Z"/><path class="cls-2" d="M111.43,80.23l-3.49-4.83s3.25-3.62,4.68-3.39,3.88,3.4,3.49,4.83S111.43,80.23,111.43,80.23Z"/><path class="cls-2" d="M99.66,73.05l5.78,1.45s2.15-4.37,1.41-5.61-4.59-2.34-5.78-1.45S99.66,73.05,99.66,73.05Z"/><path class="cls-2" d="M102.53,95.55,96.75,94.1s-2.15,4.36-1.4,5.6,4.59,2.34,5.78,1.45S102.53,95.55,102.53,95.55Z"/><path class="cls-2" d="M112,88.33l0-6s4.75-1.06,5.78-.05,1.2,5,0,6S112,88.33,112,88.33Z"/></g><path class="cls-3" d="M90.74,33.33a10.2,10.2,0,1,0,12.47,7.26A10.2,10.2,0,0,0,90.74,33.33Zm4,15.05a5.36,5.36,0,1,1,3.82-6.56A5.37,5.37,0,0,1,94.72,48.38Z"/><path class="cls-3" d="M93.64,35,89.2,36.19s-1.7-3.34-1.14-4.3S91.58,30,92.5,30.71,93.64,35,93.64,35Z"/><path class="cls-3" d="M97.25,50.37,92.8,51.54s.18,3.75,1.14,4.31,4-.13,4.45-1.17S97.25,50.37,97.25,50.37Z"/><path class="cls-3" d="M87.44,37.26,85.65,41.5s-3.69-.71-4.1-1.74.68-3.92,1.79-4.23S87.44,37.26,87.44,37.26Z"/><path class="cls-3" d="M85.5,43.51l.44,4.57s-3.58,1.13-4.44.42-1.25-3.77-.43-4.57S85.5,43.51,85.5,43.51Z"/><path class="cls-3" d="M101.56,43.69l-1-4.49s3.41-1.56,4.35-1,1.71,3.59,1,4.49S101.56,43.69,101.56,43.69Z"/><path class="cls-3" d="M95.44,35l3.64,2.8s2.86-2.43,2.72-3.53-2.54-3.07-3.65-2.8S95.44,35,95.44,35Z"/><path class="cls-3" d="M90.57,51.8,86.92,49s-2.85,2.43-2.71,3.54,2.53,3.06,3.65,2.79S90.57,51.8,90.57,51.8Z"/><path class="cls-3" d="M99.48,49.6l1.79-4.23s3.68.7,4.1,1.73-.69,3.92-1.79,4.23S99.48,49.6,99.48,49.6Z"/><path class="cls-4" d="M132.16,117.69c0,1.55-26.81,2.8-59.89,2.8s-59.88-1.25-59.88-2.8,26.81-2.79,59.88-2.79S132.16,116.15,132.16,117.69Z"/><path class="cls-5" d="M72.46,38.16s-12.5,4.6-13,13S56.61,64.35,47.9,72.27s-21.72,9-18.21,18.25c5.63,14.69-7.72,13.12-1.75,20.59s28.57-4.44,31.18-9.32,15,.14,17.27-8.24S90.5,88.51,94,82.46s-.87-14,.63-17.33c5.49-12.23.43-23-9.52-26C76,36.47,72.46,38.16,72.46,38.16Z"/><path class="cls-6" d="M98,62.26a5.67,5.67,0,0,1-5.67,5.68h0a5.67,5.67,0,0,1-5.67-5.68V56.85a5.67,5.67,0,0,1,5.67-5.67h0A5.67,5.67,0,0,1,98,56.85Z"/><path class="cls-7" d="M64.37,61.54c0,11.08,6.47,20,14.42,19.88s14.37-9.14,14.35-20.21-6.47-20-14.42-19.88S64.35,50.47,64.37,61.54Z"/><path class="cls-7" d="M61.61,61.37c0,3.05,1.54,5.5,3.41,5.48s3.41-2.51,3.41-5.55S66.89,55.8,65,55.83,61.61,58.33,61.61,61.37Z"/><path class="cls-5" d="M80.08,46.54s-9,9.89-18.73,12.16c0,0,.62-16.23,14.42-18.37,0,0,16.59-.79,18.11,14.84C93.88,55.17,81,51.91,80.08,46.54Z"/><path class="cls-3" d="M77.94,84.47C62.76,84.47,50,98.6,46.45,117.69h63C105.88,98.6,93.13,84.47,77.94,84.47Z"/><polygon class="cls-7" points="83.47 89.71 78.82 95.23 74.17 89.71 74.17 79.24 83.47 79.24 83.47 89.71"/><path class="cls-6" d="M71.33,62.26a5.67,5.67,0,0,1-5.67,5.68h0A5.67,5.67,0,0,1,60,62.26V56.85a5.67,5.67,0,0,1,5.67-5.67h0a5.67,5.67,0,0,1,5.67,5.67Z"/><path class="cls-6" d="M82.45,33.84H73.54c-5.46,0-9.89,5.1-9.89,11.4v7h2.84V46.4c0-5,3.55-9.14,7.93-9.14h7.15c4.38,0,7.93,4.09,7.93,9.14v3l2.84,2.9v-7C92.34,38.94,87.91,33.84,82.45,33.84Z"/><path class="cls-6" d="M89.45,73.76a2,2,0,0,1-2,2h-2a2,2,0,0,1-2-2h0a2,2,0,0,1,2-2h2a2,2,0,0,1,2,2Z"/><path class="cls-6" d="M90.31,74.79a35.86,35.86,0,0,1-4-.25l.22-2c3.57.39,7.24.19,7.7-.44a14.21,14.21,0,0,0,0-7.2l1.93-.54a16.14,16.14,0,0,1,0,8.41C95.63,74.36,93,74.79,90.31,74.79Z"/><path class="cls-5" d="M74,37.26S79.64,54,95,58.7C95,58.7,94.86,32.42,74,37.26Z"/><path class="cls-3" d="M128.72,65.08c0,5.89-8.1,10.44-14,10.44a10.66,10.66,0,0,1,0-21.32C120.62,54.2,128.72,59.19,128.72,65.08Z"/><polygon class="cls-3" points="105.27 76.85 109.03 73.87 105.86 67.43 105.27 76.85"/><path class="cls-8" d="M110.29,62.65v1.68h1.63V62.65h1V67h-1V65.2h-1.63V67h-1V62.65Z"/><path class="cls-8" d="M116.5,65.18h-1.61v1h1.8V67H113.9V62.65h2.7v.81h-1.71v.91h1.61Z"/><path class="cls-8" d="M117.5,62.65h1V66.2h1.74V67H117.5Z"/><path class="cls-8" d="M121,62.71a8.27,8.27,0,0,1,1.34-.09,2.1,2.1,0,0,1,1.33.35,1.27,1.27,0,0,1,.47,1,1.4,1.4,0,0,1-.4,1,2,2,0,0,1-1.42.46l-.34,0V67h-1Zm1,2,.33,0c.52,0,.85-.26.85-.71s-.28-.65-.77-.65a1.65,1.65,0,0,0-.41,0Z"/></svg>