<svg xmlns="http://www.w3.org/2000/svg" width="10" height="9.513" viewBox="0 0 10 9.513"><defs><style>.a{fill:#89c523;fill-rule:evenodd;}</style></defs><g transform="translate(-11.097 -12.99)"><g transform="translate(11.097 12.99)"><path class="a" d="M16.1,965.352l1.147,3.552a.128.128,0,0,0,.123.089l3.731-.007-3.023,2.188a.129.129,0,0,0-.047.144l1.161,3.548-3.016-2.2a.128.128,0,0,0-.151,0l-3.014,2.2,1.161-3.548a.129.129,0,0,0-.047-.144L11.1,968.986l3.731.007a.129.129,0,0,0,.123-.089Z" transform="translate(-11.097 -965.352)"/></g></g></svg>