<svg xmlns="http://www.w3.org/2000/svg" width="40.704" height="36.772" viewBox="0 0 40.704 36.772"><defs><style>.a{fill:#89c523;}</style></defs><g transform="translate(-4.965 -9.315)"><path class="a" d="M4.965,20.212c.248,1.243,3.175,5.994,8.663,12.864L15.809,31.3C10.193,24.535,6.132,20.705,4.965,20.212Z" transform="translate(0 -5.973)"/><path class="a" d="M31.485,51.386l-2.628,2.14h0a2.134,2.134,0,0,0,.611,1.573A3.8,3.8,0,0,0,33.8,56.29C33.347,54.442,32.054,51.674,31.485,51.386Z" transform="translate(-13.081 -23.059)"/><path class="a" d="M34.836,51.275h0Z" transform="translate(-16.372 -22.998)"/><path class="a" d="M28.034,46.844c-.155-.19-.3-.369-.457-.555l-2.19,1.784.451.556.91,1.117,2.195-1.787Z" transform="translate(-11.193 -20.265)"/><path class="a" d="M57.622,30.368c-6.092,0-10.337,1.7-10.337,3.216S51.531,36.8,57.622,36.8s10.337-1.7,10.337-3.217S63.715,30.368,57.622,30.368Z" transform="translate(-23.195 -11.539)"/><path class="a" d="M56.526,9.315c-6.2,0-11.241,5.711-11.241,12.73a2.333,2.333,0,0,1,1.028-1.8c.761-5.668,5.05-10.025,10.214-10.025s9.452,4.356,10.213,10.025a2.333,2.333,0,0,1,1.028,1.8C67.768,15.026,62.724,9.315,56.526,9.315Z" transform="translate(-22.099 0)"/><path class="a" d="M64.295,55.918a5.451,5.451,0,0,1-5.89-1.629,2.215,2.215,0,0,0-1.518-.862C55.69,53.36,54.4,54.5,53.265,55.5A11.774,11.774,0,0,1,51.637,56.8a1.257,1.257,0,0,1-.645.179,1.405,1.405,0,0,1-.471-.085c-1.213-.434-2.439-2.671-3.236-4.422V65.114a21.828,21.828,0,0,0,20.675,0V48.779a6.107,6.107,0,0,0-1.427,4.271A3.134,3.134,0,0,1,64.295,55.918Z" transform="translate(-23.195 -21.63)"/><path class="a" d="M47.285,41.24v4.732c.776,2.108,2.4,5.526,3.541,5.935a.379.379,0,0,0,.351-.022,11.256,11.256,0,0,0,1.489-1.191c1.271-1.124,2.724-2.4,4.276-2.3a3.1,3.1,0,0,1,2.14,1.166,4.605,4.605,0,0,0,4.9,1.379A2.236,2.236,0,0,0,65.629,48.9c.075-3.569,1.684-5,2.331-5.427V41.24c-1.836,1.583-6.185,2.423-10.337,2.423S49.12,42.824,47.285,41.24Z" transform="translate(-23.195 -17.498)"/></g></svg>