<svg xmlns="http://www.w3.org/2000/svg" width="44.952" height="42.521" viewBox="0 0 44.952 42.521"><defs><style>.a{fill:#89c523;}</style></defs><g transform="translate(-53.757 -56.249)"><g transform="translate(53.757 56.249)"><path class="a" d="M83.764,107.464l-5.209,3.222c-.544.335-.923.486-.972,1.176-.058,1,0,2.012,0,3.008a.617.617,0,0,0,.607.607h27.5a.612.612,0,0,0,.607-.607v-3.251a.612.612,0,0,0-.3-.525l-4.286-2.337c-1.944-1.069-4.009-1.944-4.767-4.272A5.477,5.477,0,0,1,100.7,97.57c1.6-.486,3.232-.909,4.86-1.361l4.932-1.385a.617.617,0,0,0,.447-.583v-2.25a.612.612,0,0,0-.612-.607H99.266l.607.607V89.357a.617.617,0,0,0-.607-.607H81.174a.612.612,0,0,0-.617.607v8.378a.612.612,0,0,0,.617.612c4.947,0,6.585,6.478,2.6,9.116-.646.433-.039,1.487.617,1.05C86.731,107.072,84.435,107.056,83.764,107.464Z" transform="translate(-65.991 -72.956)"/><path class="a" d="M65.175,100.129a11.6,11.6,0,0,0,1.589.121.612.612,0,0,0,.607-.607V93.612A.612.612,0,0,0,66.779,93H54.887a.612.612,0,0,0-.607.607c0,.773.6,1.244,1.142,1.759a16.556,16.556,0,0,0,2.785,2.1,19.049,19.049,0,0,0,6.8,2.634C65.778,100.231,64.412,100.027,65.175,100.129Z" transform="translate(-54.026 -75.141)"/><path class="a" d="M84.2,70.381a3.358,3.358,0,0,1-3.159-2.235l-2.333-6.624a3.343,3.343,0,0,1,2.046-4.272l2.3-.812a3.353,3.353,0,0,1,4.272,2.046l2.333,6.624A3.353,3.353,0,0,1,87.61,69.38l-2.3.812A3.431,3.431,0,0,1,84.2,70.381Zm-.034-12.917a2.114,2.114,0,0,0-.709.121l-2.274.812a2.128,2.128,0,0,0-1.3,2.721l2.333,6.619a2.133,2.133,0,0,0,2.721,1.307l2.3-.812a2.128,2.128,0,0,0,1.3-2.721L86.2,58.888a2.143,2.143,0,0,0-1.132-1.215A2.206,2.206,0,0,0,84.164,57.464Z" transform="translate(-66.484 -56.249)"/><path class="a" d="M55.615,77.552a1.856,1.856,0,0,1-.622-3.606L67.676,69.48l1.234,3.5L56.227,77.45A1.9,1.9,0,0,1,55.615,77.552Z" transform="translate(-53.757 -63.05)"/><path class="a" d="M117.19,79.237l3.4-.914a.607.607,0,0,0-.321-1.171l-3.4.914a.608.608,0,0,0,.326,1.171Z" transform="translate(-85.971 -66.985)"/><path class="a" d="M114.172,71.757l2.576-2.576a.608.608,0,1,0-.86-.86L113.312,70.9a.608.608,0,0,0,.86.86Z" transform="translate(-84.279 -62.363)"/><path class="a" d="M108.737,67.359l.914-3.4a.607.607,0,0,0-1.171-.321l-.914,3.4a.608.608,0,1,0,1.171.326Z" transform="translate(-81.406 -59.826)"/></g></g></svg>