<svg xmlns="http://www.w3.org/2000/svg" width="35.816" height="35.022" viewBox="0 0 35.816 35.022"><defs><style>.a{fill:#ffffff;}</style></defs><g transform="translate(-1.251 -1.955)"><g transform="translate(1.251 1.955)"><g transform="translate(17.794 17.73)"><path class="a" d="M49.562,40.008l-6.5-6.5a.426.426,0,0,0-.6,0l-9.538,9.527a.446.446,0,0,0-.124.3.433.433,0,0,0,.124.3l6.5,6.5a1.838,1.838,0,0,0,2.595,0L49.562,42.6a1.838,1.838,0,0,0,0-2.595Zm-8.839,6.836-3.5-3.5,5.533-5.533,3.5,3.5Z" transform="translate(-32.799 -33.388)"/></g><g transform="translate(0.717)"><path class="a" d="M45.38,49.9l-1.9-1.907,3.937-3.937,1.9,1.907Z" transform="translate(-20.377 -20.308)"/><path class="a" d="M25.782,19.08l-.265,2.871-5.68,5.68L2.644,10.427A.428.428,0,0,1,2.6,9.874l5.748-7.75a.423.423,0,0,1,.491-.141.418.418,0,0,1,.271.434L8.826,5.576l3.159-.293a.418.418,0,0,1,.338.124.44.44,0,0,1,.118.338L12.154,8.91l3.164-.288a.414.414,0,0,1,.338.118.42.42,0,0,1,.118.338l-.282,3.164,3.153-.293a.4.4,0,0,1,.338.118.445.445,0,0,1,.124.338l-.288,3.17,3.164-.288a.411.411,0,0,1,.338.124.406.406,0,0,1,.124.333L22.16,18.9l3.164-.288a.4.4,0,0,1,.333.124A.411.411,0,0,1,25.782,19.08Z" transform="translate(-2.522 -1.955)"/></g><g transform="translate(0 19.595)"><path class="a" d="M15.374,40.452,5.131,50.695a.418.418,0,0,1-.3.124.4.4,0,0,1-.3-.124L1.374,47.536a.426.426,0,0,1,0-.6L11.617,36.7Z" transform="translate(-1.251 -36.695)"/></g><g transform="translate(18.263 7.541)"><path class="a" d="M41.542,19.082,37.154,23.47l-.186.017.164-1.811a1.523,1.523,0,0,0-.451-1.235,1.54,1.54,0,0,0-1.094-.451H35.5l-1.867.169.068-.745,4.089-4.089Z" transform="translate(-33.629 -15.325)"/></g><g transform="translate(18.374 1.305)"><path class="a" d="M51.268,14.487a.423.423,0,0,1-.124.3l-3.4,3.4a.436.436,0,0,1-.6,0L33.952,4.989a.413.413,0,0,1-.079-.485.42.42,0,0,1,.434-.231l7.936,1.134a.414.414,0,0,1,.237.118l8.664,8.664A.422.422,0,0,1,51.268,14.487Z" transform="translate(-33.826 -4.269)"/></g></g></g></svg>