<svg xmlns="http://www.w3.org/2000/svg" width="21.183" height="21.198" viewBox="0 0 21.183 21.198"><defs><style>.a{fill:#fff;}</style></defs><g transform="translate(0 0)"><g transform="translate(0)"><path class="a" d="M-229.31,399.979l-2.69,6.892,6.892-2.69,14.086-14.086a.64.64,0,0,0,0-.937l-3.265-3.265a.641.641,0,0,0-.937-.03l-14.086,14.117Zm14.54-13.391,3.053,3.053-1.481,1.481-3.053-3.053Zm-12.3,15.658h0l1.33,1.33-3.2,1.239-1-1,1.239-3.2,1.33,1.33h0Zm13.3-10.52-11.608,11.608-1.391-1.391,11.608-11.608ZM-230.1,404.181l.786.786-1.239.484Zm13.27-15.537,1.391,1.391-11.608,11.608-1.391-1.391Z" transform="translate(232 -385.673)"/></g></g></svg>