<svg xmlns="http://www.w3.org/2000/svg" width="43.98" height="42.521" viewBox="0 0 43.98 42.521"><defs><style>.a{fill:#ffffff;}</style></defs><g transform="translate(-11.38 -12.661)"><g transform="translate(11.38 12.661)"><path class="a" d="M57.462,54.794a11.789,11.789,0,0,1,4.475.883v-6.1a1.648,1.648,0,0,0-1.645-1.651H47.56a.429.429,0,0,1,.421.427v.945h.49a.43.43,0,0,1,.427.427v1.093a1.8,1.8,0,0,1,.461,1.2v2.784h2.26V52.186a1.122,1.122,0,1,1,2.243,0v2.608Zm.438-3.28a1.341,1.341,0,1,1-1.35,1.344A1.339,1.339,0,0,1,57.9,51.514Z" transform="translate(-26.959 -27.844)"/><path class="a" d="M66.383,69.776A11.034,11.034,0,0,0,55.7,61.491H47.627c-.142,0-.285.006-.421.017a4.045,4.045,0,0,0-.524.1.167.167,0,0,0-.051.011,4.021,4.021,0,0,0-.507.159h-.006a4.406,4.406,0,0,0-.922.507,1.044,1.044,0,0,0-.125.1,2.367,2.367,0,0,0-.222.182c-.04.04-.085.074-.125.114-.068.068-.137.142-.2.216s-.125.148-.182.228a1.919,1.919,0,0,0-.159.216c-.046.068-.085.137-.125.2s-.068.114-.1.171-.074.142-.108.216-.051.125-.08.188-.051.137-.08.211-.046.148-.063.228a1.92,1.92,0,0,0-.051.194c-.023.091-.034.188-.051.285-.006.051-.017.1-.023.154a4.09,4.09,0,0,0-.028.461v8.273H67.658Zm-20.362,2.7a1.572,1.572,0,1,1,1.572-1.572A1.571,1.571,0,0,1,46.021,72.48Zm12.105-5.768a2.1,2.1,0,0,1-2.1,2.107H48.384a2.108,2.108,0,0,1-2.1-2.107v-.769a2.107,2.107,0,0,1,2.1-2.1h7.641a2.1,2.1,0,0,1,2.1,2.1Z" transform="translate(-25.198 -33.687)"/><path class="a" d="M44.765,48.35V49.3h.978V48.35a.426.426,0,0,1,.419-.426H44.345A.426.426,0,0,1,44.765,48.35Z" transform="translate(-25.575 -27.846)"/><path class="a" d="M46.283,53.256V51.835h-2.81v1.4a1.405,1.405,0,0,0,2.81.016Z" transform="translate(-25.199 -29.529)"/><path class="a" d="M43.473,84.817v1.436H68.724l-1.149-1.436Z" transform="translate(-25.199 -43.732)"/><path class="a" d="M48.132,58.745V56.918a1.908,1.908,0,0,1-1.441.762v1.561a4.965,4.965,0,0,1,1.407-.487Z" transform="translate(-26.585 -31.718)"/><path class="a" d="M60.37,32.311a1.829,1.829,0,0,1,1.822,1.828V35.83a11.807,11.807,0,1,0-12.054-3.519Zm-1.378-6.525h-.074a.062.062,0,0,1-.028-.006A1.553,1.553,0,0,1,57.4,24.22a1.523,1.523,0,0,1,.165-.695c.006-.011.006-.017.011-.023.023-.046.051-.091.074-.131a1.56,1.56,0,0,1,1.321-.717H59a1.351,1.351,0,0,1,.37.051.044.044,0,0,1,.028.011,1.664,1.664,0,0,1,.33.131c.011.006.023.017.034.023a1.862,1.862,0,0,1,.273.2c.028.028.046.063.074.091a1.923,1.923,0,0,1,.171.2.62.62,0,0,0,.045.085.171.171,0,0,1,.023.046V23.5c.006,0,.006.006.011.011a1.472,1.472,0,0,1,.171.706,1.59,1.59,0,0,1-.307.928,1.538,1.538,0,0,1-1.184.632A.142.142,0,0,1,58.992,25.786ZM66.639,25a1.944,1.944,0,0,1,1.116.729,1.612,1.612,0,0,1,.228.4,1.951,1.951,0,0,1-.1,1.765H67.88l-.216.381L66.6,30.107a1.919,1.919,0,0,1-.547.6c-.023.017-.046.04-.068.057a.427.427,0,0,1-.074.034,1.643,1.643,0,0,1-.33.171c-.017.006-.04.006-.057.011a2.25,2.25,0,0,1-.387.091.23.23,0,0,1-.063,0,1.953,1.953,0,0,1-1.6-.6l-3.3-3.508-.427-.45a.91.91,0,0,0,.171-.074l.125-.051c.006-.006.011-.006.017-.011a.081.081,0,0,0,.034-.011c.085-.046.159-.1.239-.148a.427.427,0,0,1,.068-.04,3.519,3.519,0,0,0,.307-.273c.028-.028.051-.063.08-.091a2.543,2.543,0,0,0,.182-.233c.028-.04.051-.085.08-.125.046-.08.085-.159.125-.245a1.07,1.07,0,0,0,.057-.142,2.262,2.262,0,0,0,.085-.279c.011-.046.023-.085.034-.131a2.786,2.786,0,0,0,.04-.438V24.2a2.3,2.3,0,0,0-.04-.4c-.006-.017,0-.034-.006-.051l2.716.643ZM56.111,15.451a1.939,1.939,0,0,1,1.572-.791H60.25a1.952,1.952,0,0,1,1.879,2.522L60.564,22.4a.314.314,0,0,0-.046-.034,2.611,2.611,0,0,0-.251-.188l-.085-.051a2.369,2.369,0,0,0-.342-.165l-.057-.017a2.043,2.043,0,0,0-.319-.091c-.034-.006-.068-.017-.1-.023a2.309,2.309,0,0,0-.791,0c-.034.006-.068.017-.1.023a2.812,2.812,0,0,0-.313.085.436.436,0,0,1-.063.023,3.047,3.047,0,0,0-.336.159l-.1.068a2.691,2.691,0,0,0-.222.159c-.017.017-.046.034-.063.051l-.569-1.89-1-3.325A1.943,1.943,0,0,1,56.111,15.451ZM49.882,26.344a1.551,1.551,0,0,1,.063-.216.991.991,0,0,1,.063-.1A1.933,1.933,0,0,1,51.294,25l2.779-.655,2.511-.592c-.006.028,0,.057-.006.085a1.8,1.8,0,0,0-.028.3c0,.028-.011.051-.011.08a2.424,2.424,0,0,0,.051.456.3.3,0,0,0,.017.068,2.559,2.559,0,0,0,.1.342.875.875,0,0,1,.046.108c.046.091.091.182.142.268.023.04.046.08.068.114a.707.707,0,0,0,.046.068c.046.063.1.114.142.171.028.028.051.063.08.091a2.841,2.841,0,0,0,.307.273.427.427,0,0,1,.068.04,2.43,2.43,0,0,0,.29.171c.046.023.091.04.131.057.057.023.108.051.165.068l-3.735,3.957a1.929,1.929,0,0,1-1.116.586.4.4,0,0,1-.08.017,2.083,2.083,0,0,1-.461,0,1.956,1.956,0,0,1-.41-.1.073.073,0,0,0-.034-.006,2.181,2.181,0,0,1-.382-.194c-.006-.006-.017-.006-.023-.011a2.03,2.03,0,0,1-.621-.66l-1.281-2.215A1.943,1.943,0,0,1,49.882,26.344Z" transform="translate(-26.787 -12.661)"/><rect class="a" width="0.94" height="2.285" transform="translate(2.667 33.061)"/><path class="a" d="M17.64,85.577a.712.712,0,0,0,.712.712h1.31a.712.712,0,0,0,.712-.712V84.9H17.64Z" transform="translate(-14.075 -43.768)"/><path class="a" d="M31.925,68.82a.425.425,0,0,0,.3-.125L34.918,66a.427.427,0,0,0-.6-.6l-2.691,2.691a.427.427,0,0,0,.3.729Z" transform="translate(-20.043 -35.317)"/><path class="a" d="M30.979,61.463a.427.427,0,0,0-.6,0l-2.691,2.69a.427.427,0,1,0,.6.6l2.691-2.69A.427.427,0,0,0,30.979,61.463Z" transform="translate(-18.347 -33.621)"/><rect class="a" width="0.94" height="2.285" transform="translate(2.667 25.438)"/><path class="a" d="M29.716,48.35a.426.426,0,0,1,.419-.426H12.779a1.394,1.394,0,0,0-1.4,1.4V67.149a1.394,1.394,0,0,0,1.4,1.4h1.312a.427.427,0,0,1,.426-.424H18.1a.427.427,0,0,1,.426.424H28.8V66.289H15.018a1.828,1.828,0,0,1-1.826-1.826V52.01a1.828,1.828,0,0,1,1.826-1.826H28.8v-.46a.427.427,0,0,1,.427-.427h.489Z" transform="translate(-11.38 -27.846)"/></g></g></svg>