<?xml version="1.0"?>
<svg xmlns="http://www.w3.org/2000/svg" height="512px" viewBox="0 0 58 60" width="512px"><g><g id="Page-1" fill="none" fill-rule="evenodd"><g id="008---Pesticide" fill="rgb(0,0,0)" fill-rule="nonzero"><path id="Shape" d="m38 9.92v4.08h-3v2h8v-2h-3v-4.08c3.4396095-.49906301 5.9933527-3.44438013 6-6.92v-1c0-1.1045695-.8954305-2-2-2h-10c-1.1045695 0-2 .8954305-2 2v1c.0066473 3.47561987 2.5603905 6.42093699 6 6.92zm-4-7.92h10v1c0 2.76142375-2.2385763 5-5 5s-5-2.23857625-5-5z" data-original="#000000" class="active-path" data-old_color="#000000" fill="#FFFFFF"/><path id="Shape" d="m8 60c4.418278 0 8-3.581722 8-8v-37.5c0-2.4852814 2.0147186-4.5 4.5-4.5s4.5 2.0147186 4.5 4.5v5.732c.6558489-.1521372 1.3267398-.2299605 2-.232v-5.5c0-3.5898509-2.9101491-6.5-6.5-6.5s-6.5 2.9101491-6.5 6.5v37.5c0 3.3137085-2.6862915 5.9999999-6 5.9999999-3.31370846 0-5.99999995-2.6862914-6-5.9999999v-10c0-3.989 2.893-7.486 3.187-7.829.39188269.3406469.98014821.3214595 1.349-.044l1.834-1.834c.18749273-.1875494.44180519-.2929434.707-.293h.923c.5522847 0 1-.4477153 1-1v-10c0-.5522847-.4477153-1-1-1v-14c-.00005664-.26519481-.10545063-.51950727-.293-.707l-5-5c-.39237889-.37897221-1.01608478-.37355237-1.40181858.01218143-.38573379.38573379-.39115363 1.00943968-.01218142 1.40181857l4.707 4.707v13.586c-.55228475 0-1 .4477153-1 1v2c-.023 0-2.4-.04-3.1-1.447-.24687128-.4942949-.84770515-.6948713-1.342-.448s-.69487128.8477051-.448 1.342c1.257 2.524 4.743 2.553 4.89 2.553v2.592c-.00005664.2651948-.10545063.5195073-.293.707l-3 3c-.39038194.3904999-.39038194 1.0235001 0 1.414l.052.052-.036.041c-.153.171-3.723 4.24-3.723 9.194v10c.00495988 4.4162219 3.58377808 7.9950401 8 8z" data-original="#000000" class="active-path" data-old_color="#000000" fill="#FFFFFF"/><path id="Shape" d="m33 18v2h12v-2h-1-10z" data-original="#000000" class="active-path" data-old_color="#000000" fill="#FFFFFF"/><path id="Shape" d="m51 22h-24c-3.8641657.0044086-6.9955914 3.1358343-7 7h38c-.0044086-3.8641657-3.1358343-6.9955914-7-7z" data-original="#000000" class="active-path" data-old_color="#000000" fill="#FFFFFF"/><path id="Shape" d="m20 51h38v-20h-38zm19-18c2.1117397-.0009235 4.1375928.8359592 5.633 2.327.008.007.017.009.024.016s.009.016.016.024c3.0657449 3.131554 3.0391137 8.1474654-.0597104 11.2462896-3.0988242 3.0988241-8.1147356 3.1254553-11.2462896.0597104-.008-.007-.017-.009-.024-.016s-.009-.016-.016-.024c-2.2781477-2.2905096-2.9539629-5.7269662-1.7128301-8.7095793 1.2411329-2.982613 4.1552902-4.9252007 7.3858301-4.9234207z" data-original="#000000" class="active-path" data-old_color="#000000" fill="#FFFFFF"/><path id="Shape" d="m20 55c0 1.6568542 1.3431458 3 3 3h32c1.6568542 0 3-1.3431458 3-3v-2h-38z" data-original="#000000" class="active-path" data-old_color="#000000" fill="#FFFFFF"/><path id="Shape" d="m42.471 36.115c-2.382743-1.7022687-5.6469555-1.4322555-7.7176055.6383945s-2.3406632 5.3348625-.6383945 7.7176055z" data-original="#000000" class="active-path" data-old_color="#000000" fill="#FFFFFF"/><path id="Shape" d="m39 47c2.2454941.0038621 4.3045469-1.2484911 5.3338863-3.2441663 1.0293393-1.9956751.8560547-4.3994345-.4488863-6.2268337l-8.356 8.356c1.0121654.7250335 2.2259489 1.1149409 3.471 1.115z" data-original="#000000" class="active-path" data-old_color="#000000" fill="#FFFFFF"/></g></g></g> </svg>
