<?xml version="1.0"?>
<svg xmlns="http://www.w3.org/2000/svg" height="512px" viewBox="0 0 480.08022 480" width="512px"><g><path d="m8.039062 480.039062h464c2.269532.011719 4.433594-.9375 5.960938-2.617187 1.523438-1.679687 2.265625-3.925781 2.039062-6.183594l-32-312c-.410156-4.101562-3.875-7.21875-8-7.199219h-400c-4.121093-.019531-7.585937 3.097657-8 7.199219l-31.9999995 312c-.2265625 2.257813.5156255 4.503907 2.0429685 6.183594 1.523438 1.679687 3.691407 2.628906 5.957031 2.617187zm39.199219-312h385.601563l3.761718 36.761719-4.601562 2.296875-44.472656-22.21875c-1.117188-.554687-2.351563-.839844-3.597656-.839844-1.242188 0-2.46875.289063-3.578126.839844l-44.4375 22.21875-44.394531-22.21875c-2.265625-1.132812-4.933593-1.132812-7.199219 0l-44.433593 22.21875-44.40625-22.21875c-2.253907-1.117187-4.90625-1.117187-7.160157 0l-44.417968 22.21875-44.40625-22.21875c-2.253906-1.117187-4.90625-1.117187-7.160156 0l-44.351563 22.21875-4.496094-2.257812zm-5.519531 53.824219 2.671875 1.328125c2.253906 1.125 4.902344 1.125 7.152344 0l36.433593-18.230468.0625 19.078124h16l-.046874-19.015624 36.375 18.214843c2.257812 1.121094 4.90625 1.121094 7.160156 0l36.449218-18.230469.0625 19.03125h16l-.0625-19.007812 36.375 18.207031c2.253907 1.121094 4.90625 1.121094 7.160157 0l36.464843-18.230469.0625 19.03125h16l-.0625-19.007812 36.359376 18.207031c2.265624 1.136719 4.933593 1.136719 7.199218 0l36.480469-18.238281.023437 19.039062h16l-.0625-19.015624 36.429688 18.214843c2.253906 1.125 4.902344 1.125 7.152344 0l2.769531-1.382812 3.71875 36.257812-10.0625 5.023438-44.472656-22.296875c-1.117188-.539063-2.34375-.8125-3.582031-.800782-1.238282-.011718-2.464844.261719-3.578126.800782l-36.382812 18.191406.070312-18.992188h-16l-.070312 19.113282-36.449219-18.3125c-2.265625-1.132813-4.933593-1.132813-7.199219 0l-36.382812 18.191406.101562-18.992188h-16l-.0625 19.105469-36.457031-18.304687c-2.253906-1.121094-4.902343-1.121094-7.160156 0l-36.375 18.191406.054687-18.992188h-16l-.054687 19.097657-36.449219-18.296875c-2.253906-1.121094-4.902344-1.121094-7.160156 0l-44.390625 22.257812-9.960937-4.992187zm-5.460938 53.265625 8.132813 4.0625c2.253906 1.125 4.902344 1.125 7.152344 0l44.394531-22.214844 44.429688 22.261719c2.257812 1.121094 4.90625 1.121094 7.160156 0l44.410156-22.214843 44.414062 22.214843c2.253907 1.121094 4.90625 1.121094 7.160157 0l44.425781-22.214843 44.398438 22.214843c2.265624 1.136719 4.933593 1.136719 7.199218 0l44.433594-22.214843 44.480469 22.214843c2.25 1.125 4.898437 1.125 7.152343 0l8.238282-4.117187 3.71875 36.261718-15.535156 7.753907-40-20-.09375-19.097657-16 .050782.0625 19-40.078126 20-39.914062-20-.0625-19.050782-16 .050782.0625 19-40.070312 20-39.890626-19.960938-.101562-19.089844-16 .050782.101562 18.972656-40.054687 20-39.945313-19.941406-.085937-19.082032-16 .050782.085937 18.980468-40 20-15.421874-7.71875zm-5.457031 53.261719 13.597657 6.800781c2.253906 1.125 4.902343 1.125 7.152343 0l44.394531-22.214844 44.421876 22.261719c2.257812 1.121094 4.90625 1.121094 7.160156 0l44.410156-22.214843 44.414062 22.214843c2.253907 1.121094 4.90625 1.121094 7.160157 0l44.425781-22.214843 44.398438 22.214843c2.265624 1.136719 4.933593 1.136719 7.199218 0l44.433594-22.214843 44.480469 22.214843c2.246093 1.125 4.894531 1.125 7.144531 0l13.703125-6.839843 3.71875 36.25-20.992187 10.488281-44.472657-22.214844c-1.117187-.539063-2.34375-.8125-3.582031-.800781-1.238281-.015625-2.460938.257812-3.578125.800781l-36.382813 18.191406.03125-19.074219h-16l-.070312 19.113282-36.449219-18.238282c-2.265625-1.136718-4.933593-1.136718-7.199219 0l-36.382812 18.191407.101562-19.066407h-16l-.0625 19.105469-36.457031-18.242187c-2.253906-1.117188-4.902343-1.117188-7.160156 0l-36.375 18.195312.054687-19.058594h-16l-.054687 19.097657-36.449219-18.234375c-2.253906-1.117188-4.902344-1.117188-7.160156 0l-44.390625 22.195312-20.878906-10.457031zm-5.449219 53.25 19.054688 9.535156c2.253906 1.125 4.902344 1.125 7.152344 0l44.394531-22.214843 44.414063 22.277343c2.257812 1.121094 4.90625 1.121094 7.160156 0l44.410156-22.214843 44.414062 22.214843c2.253907 1.121094 4.90625 1.121094 7.160157 0l44.425781-22.214843 44.398438 22.214843c2.265624 1.136719 4.933593 1.136719 7.199218 0l44.433594-22.214843 44.480469 22.214843c1.113281.542969 2.335937.816407 3.574219.800781 1.234374.011719 2.457031-.261718 3.570312-.800781l19.199219-9.597656 3.648437 36.238281-26.464844 13.21875-44.472656-22.21875c-1.117187-.539062-2.34375-.8125-3.582031-.796875-1.238281-.015625-2.464844.257813-3.578125.796875l-44.441406 22.21875-44.390625-22.21875c-2.265625-1.132812-4.933594-1.132812-7.199219 0l-44.433594 22.21875-44.40625-22.21875c-2.253906-1.117187-4.90625-1.117187-7.160156 0l-44.417969 22.21875-44.40625-22.21875c-2.253906-1.117187-4.90625-1.117187-7.160156 0l-44.34375 22.21875-26.34375-13.195312zm-5.472656 53.28125 24.527344 12.269531c2.253906 1.125 4.902344 1.125 7.152344 0l36.433594-18.230468.046874 19.078124h16l-.046874-19.015624 36.375 18.214843c2.257812 1.121094 4.90625 1.121094 7.160156 0l36.449218-18.230469.0625 19.03125h16l-.0625-19.007812 36.375 18.207031c2.253907 1.121094 4.90625 1.121094 7.160157 0l36.464843-18.230469.0625 19.03125h16l-.0625-19.007812 36.359376 18.207031c2.265624 1.136719 4.933593 1.136719 7.199218 0l36.480469-18.238281.023437 19.039062h16l-.0625-19.015624 36.429688 18.214843c2.25 1.125 4.898438 1.125 7.144531 0l24.640625-12.300781 2.992188 29.101562h-446.289063zm0 0" data-original="#000000" class="active-path" data-old_color="#000000" fill="#FFFFFF"/><path d="m256.039062 72.039062h144c4.417969 0 8-3.582031 8-8v-8c.605469-8.65625-2.570312-17.152343-8.707031-23.289062s-14.632812-9.316406-23.292969-8.710938h-2.488281c-7.269531-16.136718-22.222656-23.9999995-45.511719-23.9999995-21.839843 0-39.023437 9.2265625-45.695312 23.9999995h-2.304688c-8.542968-.191406-16.792968 3.117188-22.839843 9.160157-6.042969 6.046875-9.351563 14.296875-9.160157 22.839843v8c0 4.417969 3.582032 8 8 8zm24-32h8c3.71875 0 6.949219-2.5625 7.792969-6.183593 3.0625-13.152344 19.273438-17.816407 32.207031-17.816407 23.417969 0 29.394532 8.800782 32.359376 18.402344 1.050781 3.335938 4.144531 5.601563 7.640624 5.597656h8c4.390626-.542968 8.78125.96875 11.910157 4.09375 3.125 3.125 4.636719 7.519532 4.089843 11.90625h-128c-.199218-4.300781 1.421876-8.488281 4.46875-11.53125 3.042969-3.046874 7.230469-4.667968 11.53125-4.46875zm0 0" data-original="#000000" class="active-path" data-old_color="#000000" fill="#FFFFFF"/><path d="m24.039062 112.039062h168c4.417969 0 8-3.582031 8-8v-13.085937c0-21.089844-17.375-34.183594-45.335937-34.183594h-.488281c-7.203125-20.75-27.367188-34.140625-49.285156-32.730469-21.964844-1.296874-42.15625 12.027344-49.601563 32.730469h-.175781c-23.390625 0-39.113282 13.734375-39.113282 34.183594v13.085937c0 4.417969 3.582032 8 8 8zm8-21.085937c0-16.871094 17.6875-18.183594 23.113282-18.183594h6.222656c3.761719 0 7.011719-2.617187 7.816406-6.289062 3.582032-16.539063 18.875-27.851563 35.738282-26.441407 17.105468-1.503906 32.589843 10.128907 35.910156 26.976563 1 3.410156 4.125 5.753906 7.679687 5.753906h6.214844c8.800781 0 29.335937 1.765625 29.335937 18.183594v5.085937h-152.03125zm0 0" data-original="#000000" class="active-path" data-old_color="#000000" fill="#FFFFFF"/></g> </svg>
