<?xml version="1.0"?>
<svg xmlns="http://www.w3.org/2000/svg" id="Layer_1" data-name="Layer 1" viewBox="0 0 512 512" width="512px" height="512px"><g><path d="M256.3,380.464A124.464,124.464,0,1,0,131.837,256,124.6,124.6,0,0,0,256.3,380.464Zm3.7-213.584a7.006,7.006,0,0,1,10.121,6.3l-.059,17.041,9.665,6.881L289,190.814v-17.64a7.223,7.223,0,0,1,10.382-6.262,44.236,44.236,0,0,1,24.7,39.652c0,16.721-10.078,32.026-24.078,39.5V325.8a20,20,0,1,1-40,0V246.066a44.308,44.308,0,0,1,.007-79.186ZM195,250h13V173.952a7,7,0,0,1,14,0V250h12.626a6.95,6.95,0,0,1,1.406,13.767l3.879,13.976a6.787,6.787,0,0,1,.089,1.939V325.59A20.092,20.092,0,0,1,220.117,346H209.509A20.625,20.625,0,0,1,189,325.59V279.682a7.187,7.187,0,0,1,.4-1.954l4.129-13.991A6.938,6.938,0,0,1,195,250Z" data-original="#000000" class="active-path" data-old_color="#000000" fill="#FFFFFF"/><path d="M269.275,234.952A7.162,7.162,0,0,1,274,241.51V325.8a6,6,0,1,0,12,0V241.51a6.891,6.891,0,0,1,4.43-6.558,30.223,30.223,0,0,0,19.461-28.388c0-7.079-1.891-13.722-6.891-19v6.994a6.849,6.849,0,0,1-2.951,5.827L283.6,211.4a6.934,6.934,0,0,1-7.85-.091L259.022,199.59a6.992,6.992,0,0,1-2.976-5.759l.027-6.274a30.1,30.1,0,0,0-6.578,19.007A30.514,30.514,0,0,0,269.275,234.952Z" data-original="#000000" class="active-path" data-old_color="#000000" fill="#FFFFFF"/><path d="M209.509,332h10.608c3.453,0,5.883-2.957,5.883-6.41V280.679L221.493,264h-13.36L203,280.679V325.59A6.613,6.613,0,0,0,209.509,332Z" data-original="#000000" class="active-path" data-old_color="#000000" fill="#FFFFFF"/><path d="M82.881,293.105A173.706,173.706,0,0,0,107.787,352.2a7,7,0,0,1-.433,8.347L79.467,394.22l38.615,38.615,33.676-27.888a7,7,0,0,1,8.26-.491A178.882,178.882,0,0,0,219.2,429.42a6.831,6.831,0,0,1,5.489,6.02L228.9,479h54.808l4.213-43.56a6.915,6.915,0,0,1,5.488-6.095A173.608,173.608,0,0,0,352.5,404.476a7,7,0,0,1,8.348.452l33.676,27.9,38.616-38.611-27.889-33.674a7,7,0,0,1-.49-8.259A178.915,178.915,0,0,0,429.722,293.1a7,7,0,0,1,6.162-5.487L479,283.411V228.6l-43.711-4.213a7,7,0,0,1-6.17-5.488A173.706,173.706,0,0,0,404.213,159.8a7,7,0,0,1,.433-8.347l27.914-33.708L394.489,79.191l-33.644,27.862a7,7,0,0,1-8.26.49A178.9,178.9,0,0,0,293.406,82.58a6.831,6.831,0,0,1-5.488-6.02L283.705,33H228.9l-4.212,43.56a6.915,6.915,0,0,1-5.489,6.095A173.647,173.647,0,0,0,160.1,107.523a7,7,0,0,1-8.347-.451l-33.676-27.9L79.467,117.785l27.887,33.674a7,7,0,0,1,.491,8.258A178.907,178.907,0,0,0,82.881,218.9a7,7,0,0,1-6.17,5.488L33,228.6V283.4l43.711,4.214A7,7,0,0,1,82.881,293.105ZM256.3,117.536c76.349,0,138.464,62.114,138.464,138.464S332.651,394.464,256.3,394.464,117.837,332.35,117.837,256,179.952,117.536,256.3,117.536Z" data-original="#000000" class="active-path" data-old_color="#000000" fill="#FFFFFF"/></g> </svg>
