<svg xmlns="http://www.w3.org/2000/svg" width="38.951" height="34.585" viewBox="0 0 38.951 34.585"><defs><style>.a,.b{fill:#ffffff;}.a{fill-rule:evenodd;}</style></defs><g transform="translate(-5 -10.045)"><path class="a" d="M37.848,31.777v5.186H49.954a6.227,6.227,0,0,1,6.3,6.3v.868h5.186V43.26A11.515,11.515,0,0,0,49.954,31.777Z" transform="translate(-18.632 -12.327)"/><path class="a" d="M36.6,33.915a4.817,4.817,0,0,0-1.913-6.683.534.534,0,1,0-1.068,0v8.514a.534.534,0,1,0,1.068,0A4.836,4.836,0,0,0,36.6,33.915Z" transform="translate(-16.235 -9.446)"/><rect class="b" width="7.477" height="2.223" rx="1.111" transform="translate(36.474 30.908)"/><path class="a" d="M55.511,31.771A4.576,4.576,0,1,1,50.936,27.2,4.576,4.576,0,0,1,55.511,31.771Z" transform="translate(-23.46 -9.728)"/><path class="a" d="M54.094,18.1v6.556a1.109,1.109,0,0,0,1.111,1.111h.234a1.109,1.109,0,0,0,1.111-1.111V18.1Z" transform="translate(-27.847 -4.568)"/><g transform="translate(19.886 10.045)"><path class="a" d="M750.836-908.5a2.01,2.01,0,0,0-2.01,2.01,2.008,2.008,0,0,0,2.01,2.007,2.006,2.006,0,0,0,2.007-2.007A2.008,2.008,0,0,0,750.836-908.5Zm11.159,0a2.01,2.01,0,0,0-2.01,2.01,2.008,2.008,0,0,0,2.01,2.007,2.008,2.008,0,0,0,2.01-2.007A2.01,2.01,0,0,0,762-908.5Z" transform="translate(-748.827 908.5)"/><rect class="b" width="11.16" height="1.562" transform="translate(2.009 1.227)"/></g><rect class="b" width="11.16" height="1.562" transform="translate(21.896 11.271)"/><path class="b" d="M81.838,66.624c-.795,2.265-3.576,4.285-3.447,6.582a.13.13,0,0,1,0,.014,3.448,3.448,0,1,0,6.895,0,.132.132,0,0,1,0-.014C85.414,70.909,82.633,68.889,81.838,66.624Z" transform="translate(-41.626 -32.093)"/><path class="a" d="M9.083,44.984A6.293,6.293,0,0,1,5,39.326,6.322,6.322,0,0,1,9.223,33.61V15.773a3.082,3.082,0,1,1,6.165,0V33.61a6.321,6.321,0,0,1,4.223,5.716,6.293,6.293,0,0,1-4.082,5.658V39.115a.81.81,0,0,0-.811-.813H9.895a.81.81,0,0,0-.811.813v5.869Z" transform="translate(0 -1.5)"/></g></svg>