<?xml version="1.0"?>
<svg xmlns="http://www.w3.org/2000/svg" height="512px" viewBox="0 0 64 64" width="512px"><g><g id="Glyph"><path d="m45 28h6v2h-6z" data-original="#000000" class="active-path" data-old_color="#000000" fill="#FFFFFF"/><path d="m38 42h4a1 1 0 0 0 0-2h-4a1 1 0 0 0 0 2z" data-original="#000000" class="active-path" data-old_color="#000000" fill="#FFFFFF"/><path d="m43 24h10v2h-10z" data-original="#000000" class="active-path" data-old_color="#000000" fill="#FFFFFF"/><path d="m37.515 19.143 4.762 2.857h10.723v-2a1 1 0 0 1 1-1h2.831c-.731-2.166-3.705-4-6.831-4h-16v4h3a1 1 0 0 1 .515.143z" data-original="#000000" class="active-path" data-old_color="#000000" fill="#FFFFFF"/><path d="m30 18.219 2 .5v-3.438l-2 .5z" data-original="#000000" class="active-path" data-old_color="#000000" fill="#FFFFFF"/><path d="m51 32a1 1 0 0 0 0 2h7v2h-1.92l.769 10h1.737l1.414-1.414v-11.172l-1.414-1.414z" data-original="#000000" class="active-path" data-old_color="#000000" fill="#FFFFFF"/><path d="m38.684 23.052.937-.313-2.898-1.739h-.723v6.3a13.414 13.414 0 0 0 2.052-3.612.99.99 0 0 1 .632-.636z" data-original="#000000" class="active-path" data-old_color="#000000" fill="#FFFFFF"/><path d="m51 36a3 3 0 0 1 -3-3 2.966 2.966 0 0 1 .184-1h-1.368a2.908 2.908 0 0 1 -.6 3 2.973 2.973 0 0 1 -1.44 4.884 2.99 2.99 0 0 1 -2.776 4.116h-4c-.073 0-.141-.016-.212-.021l-1.817 1.513-.907 14.508h1.441l1.5-13.114a1 1 0 0 1 .995-.886h13a1 1 0 0 1 1 .929l.931 13.071h1.989l-1.846-24z" data-original="#000000" class="active-path" data-old_color="#000000" fill="#FFFFFF"/><circle cx="45" cy="54" r="1" data-original="#000000" class="active-path" data-old_color="#000000" fill="#FFFFFF"/><path d="m39.892 48-1.374 12h13.408l-.857-12zm9.108 7h-1.184a2.746 2.746 0 0 1 -.117.285l1.008 1.008-1.414 1.414-1.008-1.007a2.746 2.746 0 0 1 -.285.117v1.183h-2v-1.184a2.746 2.746 0 0 1 -.285-.117l-1.008 1.008-1.414-1.414 1.007-1.008a2.746 2.746 0 0 1 -.116-.285h-1.184v-2h1.184a2.746 2.746 0 0 1 .117-.285l-1.008-1.008 1.414-1.414 1.008 1.007a2.746 2.746 0 0 1 .285-.116v-1.184h2v1.184a2.746 2.746 0 0 1 .285.117l1.008-1.008 1.414 1.414-1.007 1.008a2.746 2.746 0 0 1 .117.285h1.183z" data-original="#000000" class="active-path" data-old_color="#000000" fill="#FFFFFF"/><path d="m44 32h-4a1 1 0 0 0 0 2h4a1 1 0 0 0 0-2z" data-original="#000000" class="active-path" data-old_color="#000000" fill="#FFFFFF"/><path d="m45 37a1 1 0 0 0 -1-1h-4a1 1 0 0 0 0 2h4a1 1 0 0 0 1-1z" data-original="#000000" class="active-path" data-old_color="#000000" fill="#FFFFFF"/><path d="m23 16h3v2h-3z" data-original="#000000" class="active-path" data-old_color="#000000" fill="#FFFFFF"/><path d="m18 16h3v2h-3z" data-original="#000000" class="active-path" data-old_color="#000000" fill="#FFFFFF"/><path d="m23.586 20h2.828v2h-2.828z" transform="matrix(.707 -.707 .707 .707 -7.527 23.828)" data-original="#000000" class="active-path" data-old_color="#000000" fill="#FFFFFF"/><path d="m19.586 24h2.828v2h-2.828z" transform="matrix(.707 -.707 .707 .707 -11.527 22.172)" data-original="#000000" class="active-path" data-old_color="#000000" fill="#FFFFFF"/><path d="m20 7.586h2v2.828h-2z" transform="matrix(.707 -.707 .707 .707 -.213 17.485)" data-original="#000000" class="active-path" data-old_color="#000000" fill="#FFFFFF"/><path d="m24 11.586h2v2.828h-2z" transform="matrix(.707 -.707 .707 .707 -1.87 21.485)" data-original="#000000" class="active-path" data-old_color="#000000" fill="#FFFFFF"/><path d="m15.7 24.715 1.008-1.008-1.414-1.414-1.009 1.007a2.746 2.746 0 0 0 -.285-.116v-1.184h-2v1.184a2.746 2.746 0 0 0 -.285.117l-1.008-1.008-1.414 1.414 1.007 1.008a2.746 2.746 0 0 0 -.117.285h-1.183v2h1.184a2.746 2.746 0 0 0 .117.285l-1.008 1.008 1.414 1.414 1.008-1.007a2.746 2.746 0 0 0 .285.117v1.183h2v-1.184a2.746 2.746 0 0 0 .285-.117l1.008 1.008 1.414-1.414-1.007-1.008a2.746 2.746 0 0 0 .116-.285h1.184v-2h-1.184a2.746 2.746 0 0 0 -.116-.285zm-2.7 2.285a1 1 0 1 1 1-1 1 1 0 0 1 -1 1z" data-original="#000000" class="active-path" data-old_color="#000000" fill="#FFFFFF"/><path d="m8.7 16.285a2.746 2.746 0 0 0 .116-.285h1.184v-2h-1.184a2.746 2.746 0 0 0 -.117-.285l1.008-1.008-1.414-1.414-1.008 1.007a2.746 2.746 0 0 0 -.285-.116v-1.184h-2v1.184a2.746 2.746 0 0 0 -.285.117l-1.008-1.008-1.414 1.414 1.007 1.008a2.746 2.746 0 0 0 -.116.285h-1.184v2h1.184a2.746 2.746 0 0 0 .117.285l-1.008 1.008 1.414 1.414 1.008-1.007a2.746 2.746 0 0 0 .285.116v1.184h2v-1.184a2.746 2.746 0 0 0 .285-.117l1.008 1.008 1.414-1.414zm-2.7-.285a1 1 0 1 1 1-1 1 1 0 0 1 -1 1z" data-original="#000000" class="active-path" data-old_color="#000000" fill="#FFFFFF"/><path d="m15.7 4.715 1.008-1.008-1.415-1.414-1.008 1.007a2.746 2.746 0 0 0 -.285-.116v-1.184h-2v1.184a2.746 2.746 0 0 0 -.285.117l-1.008-1.008-1.414 1.414 1.007 1.008a2.746 2.746 0 0 0 -.116.285h-1.184v2h1.184a2.746 2.746 0 0 0 .117.285l-1.008 1.008 1.414 1.414 1.008-1.007a2.746 2.746 0 0 0 .285.116v1.184h2v-1.184a2.746 2.746 0 0 0 .285-.117l1.008 1.008 1.414-1.414-1.007-1.008a2.746 2.746 0 0 0 .116-.285h1.184v-2h-1.184a2.746 2.746 0 0 0 -.116-.285zm-2.7 2.285a1 1 0 1 1 1-1 1 1 0 0 1 -1 1z" data-original="#000000" class="active-path" data-old_color="#000000" fill="#FFFFFF"/></g></g> </svg>
