<svg xmlns="http://www.w3.org/2000/svg" width="141.38" height="141.38" viewBox="0 0 141.38 141.38"><defs><style>.a{fill:#fff;}</style></defs><g transform="translate(-1 -1)"><g transform="translate(1 1)"><path class="a" d="M129.527,13.853H113.461a3.214,3.214,0,0,0-3.213,3.213V33.132a6.426,6.426,0,1,1-8.547-6.041,3.212,3.212,0,0,0,2.121-3.02V4.213a3.213,3.213,0,1,0-6.426,0v9.64H49.2a3.214,3.214,0,0,0-3.213,3.213V33.132a6.426,6.426,0,1,1-8.547-6.041,3.212,3.212,0,0,0,2.121-3.02V4.213a3.213,3.213,0,0,0-6.426,0v9.64H13.853A12.849,12.849,0,0,0,1,26.705V129.527A12.849,12.849,0,0,0,13.853,142.38h91.833a6.42,6.42,0,0,0,4.563-1.864l30.268-30.268a6.42,6.42,0,0,0,1.864-4.563V26.705A12.849,12.849,0,0,0,129.527,13.853ZM13.853,129.527V52.411H129.527v50.64l-.771.771H116.675a12.849,12.849,0,0,0-12.853,12.853v12.082l-.771.771Z" transform="translate(-1 -1)"/></g></g></svg>