<svg xmlns="http://www.w3.org/2000/svg" width="72.58" height="141.305" viewBox="0 0 72.58 141.305"><defs><style>.a{fill:#fff;}</style></defs><g transform="translate(-24.318)"><path class="a" d="M35.074,141.3a14.272,14.272,0,0,1-7.32-4.084,12.8,12.8,0,0,1-3.434-8.761V12.774A12.491,12.491,0,0,1,34.452.254,3.956,3.956,0,0,0,35.074,0H86.41a8.054,8.054,0,0,0,.848.325,12.59,12.59,0,0,1,9.637,12.392q0,57.723,0,115.446a12.859,12.859,0,0,1-10.273,12.9,2.431,2.431,0,0,0-.48.24H35.074Zm-6.557-26.042H92.656V25.732H28.518Zm32.09,17.267a6.345,6.345,0,0,0,6.4-6.373,6.429,6.429,0,1,0-6.4,6.373Zm0-119.812h-7.97c-1.752,0-2.7.82-2.685,2.247a2.247,2.247,0,0,0,2.628,2.176h16c1.752,0,2.7-.82,2.685-2.247a2.247,2.247,0,0,0-2.628-2.176Z"/></g></svg>