<svg xmlns="http://www.w3.org/2000/svg" width="114.618" height="141.305" viewBox="0 0 114.618 141.305"><defs><style>.a{fill:#fff;}</style></defs><g transform="translate(-108.555 -15.258)"><g transform="translate(108.555 15.258)"><g transform="translate(0)"><path class="a" d="M164.958,26.381c1.692.341,3.4.668,5.089,1.009,4.052.81,8.1,1.606,12.155,2.417q7.378,1.471,14.771,2.929c4.251.839,8.516,1.692,12.766,2.53,2.061.412,4.123.867,6.184,1.223.028,0,.057.014.085.014-1.393-1.834-2.786-3.654-4.18-5.487v67.5c0,1.265.057,2.545-.057,3.8-.028.227-.043.455-.085.682.071-.5.142-1.009.2-1.507a29.173,29.173,0,0,1-2.1,7.321c.185-.455.384-.91.569-1.365a48.248,48.248,0,0,1-6.17,10.349l.9-1.152a76.654,76.654,0,0,1-13.861,13.534l1.152-.9a130.446,130.446,0,0,1-20.983,12.965q-3.86,1.941-7.8,3.71c1.464-.185,2.914-.384,4.379-.569-1.223-.441-2.431-.938-3.639-1.436.455.185.91.384,1.365.569a125.041,125.041,0,0,1-19.519-10.349q-3.455-2.239-6.71-4.762l1.152.9a73.824,73.824,0,0,1-13.335-13.051l.9,1.152a49.669,49.669,0,0,1-6.5-10.932c.185.455.384.91.569,1.365a40.432,40.432,0,0,1-2.488-8.132c.071.5.142,1.009.2,1.507V40.028c0-2.872.057-5.743,0-8.6V31.3c-1.393,1.834-2.786,3.654-4.18,5.487,1.72-.341,3.44-.682,5.175-1.038,4.165-.825,8.331-1.663,12.5-2.488q7.528-1.493,15.055-3l13.022-2.6c2.118-.426,4.251-.8,6.369-1.265.028,0,.057-.014.085-.014a5.749,5.749,0,0,0,3.4-2.616,5.819,5.819,0,0,0,.569-4.379,5.707,5.707,0,0,0-2.616-3.4,6.31,6.31,0,0,0-4.379-.569c-1.72.341-3.44.682-5.175,1.038-4.165.825-8.331,1.663-12.5,2.488q-7.527,1.493-15.055,3l-13.022,2.6c-2.118.426-4.265.753-6.369,1.265a.18.18,0,0,1-.085.014c-.455.185-.91.384-1.365.569a4.158,4.158,0,0,0-1.592,1.464,5.582,5.582,0,0,0-1.223,3.44V99.594c0,.81-.014,1.635,0,2.445a17.23,17.23,0,0,0,.64,3.682,40.625,40.625,0,0,0,1.635,5.132,52.86,52.86,0,0,0,5.573,10.662,69.267,69.267,0,0,0,7.563,9.226,96.706,96.706,0,0,0,17.045,13.633,125.257,125.257,0,0,0,14.714,8.089c2.943,1.379,5.928,2.73,8.985,3.81.057.028.128.043.185.071,2.175.711,4.236-.483,6.156-1.365q3.9-1.791,7.719-3.767a142.519,142.519,0,0,0,13.036-7.634,95.781,95.781,0,0,0,18.325-15.354,57.243,57.243,0,0,0,9.255-13.335,36.89,36.89,0,0,0,3.327-9.639,25.081,25.081,0,0,0,.455-4.251V31.029a5.582,5.582,0,0,0-1.223-3.44,5.268,5.268,0,0,0-2.957-2.033c-1.692-.341-3.4-.668-5.089-1.009-4.052-.81-8.1-1.606-12.155-2.417q-7.378-1.471-14.771-2.929c-4.208-.853-8.459-1.706-12.724-2.545-2.061-.412-4.123-.839-6.184-1.223-.028,0-.057-.014-.085-.014a6.094,6.094,0,0,0-4.379.569,5.687,5.687,0,0,0-2.047,7.776A5.642,5.642,0,0,0,164.958,26.381Z" transform="translate(-108.555 -15.258)"/><path class="a" d="M287.985,328.69l5.985,5.985,9.61,9.61,2.2,2.2a5.777,5.777,0,0,0,8.046,0l3.469-3.469,8.388-8.388,10.094-10.094,8.786-8.786c1.422-1.422,2.872-2.815,4.265-4.265.014-.028.043-.043.057-.057a5.69,5.69,0,1,0-8.046-8.046l-3.469,3.469-8.388,8.388-10.094,10.094-8.786,8.786c-1.422,1.422-2.872,2.815-4.265,4.265-.014.028-.043.043-.057.057h8.046l-5.985-5.985-9.61-9.61-2.2-2.2a5.69,5.69,0,1,0-8.046,8.046Z" transform="translate(-261.082 -261.029)"/></g></g></g></svg>